<?xml version="1.0" encoding="UTF-8" ?>
<!DOCTYPE svg PUBLIC "-//W3C//DTD SVG 1.1//EN" "http://www.w3.org/Graphics/SVG/1.1/DTD/svg11.dtd">
<svg width="1280pt" height="1234pt" viewBox="0 0 1280 1234" version="1.1" xmlns="http://www.w3.org/2000/svg">
<g id="#ffffffff">
<path fill="#ffffff" opacity="1.00" d=" M 0.00 0.00 L 1280.00 0.00 L 1280.00 1234.00 L 0.00 1234.00 L 0.00 0.00 M 739.04 79.63 C 738.71 82.21 738.83 84.83 739.56 87.33 C 741.86 96.00 746.13 103.95 750.13 111.92 C 755.41 122.07 761.45 131.81 767.70 141.38 C 773.81 150.38 779.68 159.80 788.15 166.82 C 799.94 176.32 813.40 183.44 826.97 190.03 C 838.27 195.77 849.69 201.26 860.97 207.03 C 878.08 215.81 894.65 225.62 910.63 236.31 C 919.99 242.18 929.08 248.48 937.91 255.13 C 944.51 260.50 950.95 266.05 957.34 271.67 C 965.37 279.30 974.01 286.31 981.60 294.40 C 1005.17 317.02 1023.93 343.99 1042.08 370.99 C 1052.91 387.46 1063.42 404.21 1071.83 422.08 C 1083.05 444.86 1092.96 468.34 1100.46 492.62 C 1106.61 512.55 1112.61 532.56 1116.70 553.03 C 1117.92 557.95 1118.31 563.35 1121.39 567.57 C 1124.13 570.89 1127.92 573.08 1131.23 575.77 C 1150.44 590.11 1168.65 605.72 1187.52 620.50 C 1191.34 623.60 1196.00 625.62 1200.95 625.92 C 1201.70 618.97 1201.94 611.98 1201.79 604.99 C 1201.47 584.31 1200.99 563.50 1197.26 543.10 C 1194.10 523.37 1190.48 503.69 1185.59 484.31 C 1182.59 474.40 1180.24 464.28 1176.49 454.62 C 1166.19 424.51 1152.36 395.73 1137.13 367.84 C 1126.20 348.36 1114.96 329.02 1102.31 310.61 C 1085.88 286.20 1067.04 263.50 1046.89 242.09 C 1034.89 230.09 1022.18 218.81 1009.44 207.61 C 983.30 185.46 955.09 165.81 925.57 148.44 C 894.88 130.61 862.59 115.41 828.91 104.12 C 817.43 99.99 805.68 96.66 794.12 92.75 C 781.55 88.69 768.83 85.09 756.07 81.68 C 750.49 80.42 744.80 78.87 739.04 79.63 M 559.27 82.40 C 537.82 85.10 516.84 90.70 496.30 97.36 C 485.97 100.27 476.02 104.27 465.89 107.77 C 436.87 118.69 409.08 132.69 382.43 148.49 C 349.61 168.16 318.22 190.28 288.85 214.81 C 265.22 234.53 245.67 258.45 226.07 282.03 C 213.92 296.57 203.91 312.69 193.29 328.34 C 186.61 338.13 180.91 348.54 174.60 358.57 C 163.28 378.79 154.03 400.09 145.55 421.64 C 138.31 439.94 131.07 458.26 125.01 477.00 C 120.11 490.91 116.65 505.27 113.55 519.67 C 108.81 543.51 106.90 567.79 105.01 591.99 C 104.46 598.64 104.42 605.32 104.50 611.99 C 104.74 616.88 105.12 622.03 107.60 626.37 C 109.34 628.03 111.71 626.49 113.10 625.15 C 128.23 610.56 144.62 597.35 160.10 583.14 C 166.59 577.29 173.32 571.71 179.49 565.53 C 184.28 560.97 189.40 556.55 192.82 550.82 C 195.04 547.21 195.87 543.00 196.86 538.95 C 198.76 531.01 199.77 522.89 201.66 514.96 C 207.18 490.38 215.34 466.44 225.34 443.33 C 243.80 400.50 267.81 360.12 296.14 323.08 C 301.68 316.65 306.80 309.84 312.94 303.95 C 318.19 298.86 323.03 293.30 328.82 288.80 C 341.27 278.25 353.76 267.74 366.27 257.26 C 387.39 238.90 411.23 223.93 435.98 210.97 C 447.78 205.33 459.45 199.34 471.71 194.74 C 484.09 189.53 496.88 185.36 509.32 180.30 C 513.75 178.38 518.50 176.45 521.64 172.59 C 525.73 167.26 529.08 161.41 532.77 155.80 C 546.40 134.85 559.89 113.78 571.84 91.81 C 573.05 89.34 574.59 86.89 574.83 84.09 C 574.98 82.48 573.28 81.92 572.00 81.80 C 567.75 81.36 563.49 81.90 559.27 82.40 M 638.07 211.01 C 620.83 235.59 604.41 260.73 587.49 285.52 C 573.68 304.79 560.40 324.44 547.01 344.00 C 538.20 356.57 529.34 369.12 520.95 381.97 C 514.97 390.92 508.97 399.86 502.64 408.56 C 491.41 424.76 480.50 441.18 469.29 457.39 C 442.04 497.07 414.27 536.39 386.89 575.97 C 354.74 621.48 322.62 667.00 290.37 712.44 C 276.04 731.80 262.36 751.62 247.77 770.78 C 243.41 776.44 239.39 782.35 235.00 787.99 C 231.45 793.22 226.92 797.69 222.12 801.77 C 220.79 799.72 219.45 797.66 218.51 795.41 C 213.95 784.70 211.35 773.31 208.89 761.97 C 204.33 740.44 199.93 718.83 197.74 696.91 C 196.60 687.70 196.04 677.88 190.79 669.89 C 188.38 671.03 185.96 672.19 183.78 673.75 C 172.97 681.83 163.36 691.35 152.96 699.92 C 143.55 708.52 133.65 716.73 125.85 726.89 C 123.24 730.43 120.60 734.42 120.68 739.01 C 120.93 748.48 122.59 757.87 124.85 767.06 C 128.08 781.27 132.06 795.31 136.78 809.11 C 139.34 816.60 141.37 824.28 144.36 831.63 C 147.08 838.28 149.28 845.15 152.35 851.66 C 169.87 890.85 191.17 928.52 217.65 962.38 C 223.73 969.62 229.70 976.96 236.03 983.99 C 246.32 995.66 256.46 1007.53 267.92 1018.09 C 277.32 1027.39 287.59 1035.73 297.53 1044.42 C 310.51 1054.84 323.23 1065.62 336.86 1075.20 C 365.63 1096.57 396.65 1114.93 429.26 1129.80 C 439.58 1134.77 450.32 1138.80 460.90 1143.18 C 474.54 1147.97 488.13 1152.98 502.09 1156.80 C 509.63 1159.19 517.32 1161.01 524.92 1163.20 C 546.32 1168.42 568.11 1171.94 590.02 1174.19 C 603.35 1174.97 616.66 1176.39 630.02 1176.56 C 661.67 1177.50 693.37 1176.32 724.88 1173.33 C 737.57 1171.55 750.35 1170.48 762.96 1168.15 C 770.06 1166.88 777.17 1165.68 784.28 1164.41 C 811.60 1158.57 837.90 1148.77 863.39 1137.46 C 900.63 1120.78 936.53 1100.79 969.09 1076.12 C 985.18 1064.38 999.95 1050.99 1014.99 1037.97 C 1030.26 1023.60 1046.12 1009.79 1060.30 994.30 C 1071.74 981.96 1082.48 968.96 1092.24 955.24 C 1101.46 943.55 1109.23 930.83 1117.48 918.45 C 1122.83 909.46 1128.12 900.42 1133.30 891.32 C 1138.84 881.09 1144.08 870.71 1149.30 860.32 C 1153.57 850.62 1158.12 841.05 1162.25 831.30 C 1169.20 813.48 1176.65 795.73 1180.91 777.03 C 1184.18 764.64 1186.72 751.86 1186.13 739.00 C 1185.70 735.21 1185.35 731.18 1183.14 727.95 C 1178.95 721.29 1172.93 716.10 1167.48 710.52 C 1157.23 701.04 1146.62 691.94 1135.56 683.42 C 1131.16 680.11 1126.72 676.80 1121.81 674.29 C 1113.54 689.28 1112.19 706.65 1108.06 722.97 C 1103.92 739.02 1099.69 755.06 1094.91 770.93 C 1090.83 786.28 1085.81 801.37 1079.87 816.10 C 1077.39 815.49 1076.37 812.85 1074.81 811.12 C 1061.81 793.30 1049.80 774.79 1037.36 756.58 C 1006.08 709.52 972.38 664.13 940.42 617.54 C 923.80 593.06 908.06 568.01 891.55 543.46 C 860.82 498.54 830.00 453.68 799.23 408.79 C 778.60 381.10 759.39 352.38 740.67 323.37 C 728.01 303.75 715.11 284.29 702.16 264.86 C 690.77 247.52 679.87 229.86 668.40 212.57 C 664.26 205.57 659.38 199.09 653.88 193.11 C 646.84 197.26 642.68 204.55 638.07 211.01 Z" />
<path fill="#ffffff" opacity="1.00" d=" M 636.30 355.33 C 641.36 348.31 645.81 340.48 652.87 335.25 C 657.14 341.25 661.81 346.95 666.14 352.91 C 689.13 385.69 711.29 419.05 733.76 452.19 C 812.50 566.82 891.39 681.34 970.11 795.98 C 976.45 804.93 982.33 814.20 988.87 823.02 C 1002.40 843.71 1017.37 863.43 1030.72 884.24 C 1032.53 887.34 1034.68 890.38 1035.45 893.94 C 1035.18 897.16 1033.40 899.98 1031.53 902.53 C 1017.67 920.82 1002.18 937.77 987.08 955.03 C 983.13 959.41 979.26 963.89 974.84 967.82 C 963.61 977.96 952.32 988.06 940.47 997.49 C 912.93 1018.88 882.92 1036.93 852.04 1053.07 C 839.44 1059.31 826.82 1065.61 813.62 1070.50 C 790.80 1079.58 766.96 1085.78 742.99 1091.01 C 728.41 1094.30 713.85 1097.85 699.04 1099.96 C 690.39 1100.84 681.69 1101.32 672.99 1101.29 C 641.63 1101.93 610.11 1101.03 579.06 1096.21 C 531.24 1089.10 484.60 1073.88 441.95 1051.10 C 419.88 1039.55 398.96 1025.90 378.99 1011.04 C 362.30 998.15 345.72 985.07 330.13 970.87 C 324.04 965.31 318.46 959.22 312.51 953.51 C 305.32 946.64 299.17 938.80 293.06 930.99 C 284.29 919.96 276.60 908.13 267.81 897.13 C 266.27 895.06 264.45 892.75 264.77 890.00 C 264.87 887.30 266.45 885.02 267.74 882.77 C 271.39 876.54 275.64 870.70 279.78 864.80 C 304.82 829.49 329.76 794.11 354.71 758.74 C 366.08 741.82 378.16 725.40 389.72 708.61 C 413.19 674.18 437.31 640.21 461.10 606.01 C 519.52 522.46 577.92 438.90 636.30 355.33 M 650.70 490.57 C 648.84 490.71 647.79 492.38 646.66 493.64 C 641.87 499.52 637.05 505.39 632.63 511.56 C 610.98 540.69 589.99 570.32 569.12 600.02 C 531.51 652.85 493.18 705.19 457.14 759.11 C 452.45 766.22 446.76 773.00 444.59 781.41 C 453.53 783.66 462.87 783.57 472.01 782.89 C 491.00 782.26 510.00 782.22 529.00 781.85 C 621.66 781.40 714.33 781.59 807.00 781.60 C 816.67 781.62 826.36 781.75 836.04 781.54 C 842.17 781.17 848.38 780.59 854.20 778.47 C 851.18 771.33 846.70 765.00 842.51 758.53 C 798.82 695.21 755.04 631.96 711.29 568.68 C 694.10 543.71 677.03 518.61 657.99 495.00 C 656.11 492.92 653.89 489.90 650.70 490.57 Z" />
</g>
<g id="#000000ff">
<path fill="#000000" opacity="1.00" d=" M 739.04 79.63 C 744.80 78.87 750.49 80.42 756.07 81.68 C 768.83 85.09 781.55 88.69 794.12 92.75 C 805.68 96.66 817.43 99.99 828.91 104.12 C 862.59 115.41 894.88 130.61 925.57 148.44 C 955.09 165.81 983.30 185.46 1009.44 207.61 C 1022.18 218.81 1034.89 230.09 1046.89 242.09 C 1067.04 263.50 1085.88 286.20 1102.31 310.61 C 1114.96 329.02 1126.20 348.36 1137.13 367.84 C 1152.36 395.73 1166.19 424.51 1176.49 454.62 C 1180.24 464.28 1182.59 474.40 1185.59 484.31 C 1190.48 503.69 1194.10 523.37 1197.26 543.10 C 1200.99 563.50 1201.47 584.31 1201.79 604.99 C 1201.94 611.98 1201.70 618.97 1200.95 625.92 C 1196.00 625.62 1191.34 623.60 1187.52 620.50 C 1168.65 605.72 1150.44 590.11 1131.23 575.77 C 1127.92 573.08 1124.13 570.89 1121.39 567.57 C 1118.31 563.35 1117.92 557.95 1116.70 553.03 C 1112.61 532.56 1106.61 512.55 1100.46 492.62 C 1092.96 468.34 1083.05 444.86 1071.83 422.08 C 1063.42 404.21 1052.91 387.46 1042.08 370.99 C 1023.93 343.99 1005.17 317.02 981.60 294.40 C 974.01 286.31 965.37 279.30 957.34 271.67 C 950.95 266.05 944.51 260.50 937.91 255.13 C 929.08 248.48 919.99 242.18 910.63 236.31 C 894.65 225.62 878.08 215.81 860.97 207.03 C 849.69 201.26 838.27 195.77 826.97 190.03 C 813.40 183.44 799.94 176.32 788.15 166.82 C 779.68 159.80 773.81 150.38 767.70 141.38 C 761.45 131.81 755.41 122.07 750.13 111.92 C 746.13 103.95 741.86 96.00 739.56 87.33 C 738.83 84.83 738.71 82.21 739.04 79.63 Z" />
<path fill="#000000" opacity="1.00" d=" M 559.27 82.40 C 563.49 81.90 567.75 81.36 572.00 81.80 C 573.28 81.92 574.98 82.48 574.83 84.09 C 574.59 86.89 573.05 89.34 571.84 91.81 C 559.89 113.78 546.40 134.85 532.77 155.80 C 529.08 161.41 525.73 167.26 521.64 172.59 C 518.50 176.45 513.75 178.38 509.32 180.30 C 496.88 185.36 484.09 189.53 471.71 194.74 C 459.45 199.34 447.78 205.33 435.98 210.97 C 411.23 223.93 387.39 238.90 366.27 257.26 C 353.76 267.74 341.27 278.25 328.82 288.80 C 323.03 293.30 318.19 298.86 312.94 303.95 C 306.80 309.84 301.68 316.65 296.14 323.08 C 267.81 360.12 243.80 400.50 225.34 443.33 C 215.34 466.44 207.18 490.38 201.66 514.96 C 199.77 522.89 198.76 531.01 196.86 538.95 C 195.87 543.00 195.04 547.21 192.82 550.82 C 189.40 556.55 184.28 560.97 179.49 565.53 C 173.32 571.71 166.59 577.29 160.10 583.14 C 144.62 597.35 128.23 610.56 113.10 625.15 C 111.71 626.49 109.34 628.03 107.60 626.37 C 105.12 622.03 104.74 616.88 104.50 611.99 C 104.42 605.32 104.46 598.64 105.01 591.99 C 106.90 567.79 108.81 543.51 113.55 519.67 C 116.65 505.27 120.11 490.91 125.01 477.00 C 131.07 458.26 138.31 439.94 145.55 421.64 C 154.03 400.09 163.28 378.79 174.60 358.57 C 180.91 348.54 186.61 338.13 193.29 328.34 C 203.91 312.69 213.92 296.57 226.07 282.03 C 245.67 258.45 265.22 234.53 288.85 214.81 C 318.22 190.28 349.61 168.16 382.43 148.49 C 409.08 132.69 436.87 118.69 465.89 107.77 C 476.02 104.27 485.97 100.27 496.30 97.36 C 516.84 90.70 537.82 85.10 559.27 82.40 Z" />
<path fill="#000000" opacity="1.00" d=" M 638.07 211.01 C 642.68 204.55 646.84 197.26 653.88 193.11 C 659.38 199.09 664.26 205.57 668.40 212.57 C 679.87 229.86 690.77 247.52 702.16 264.86 C 715.11 284.29 728.01 303.75 740.67 323.37 C 759.39 352.38 778.60 381.10 799.23 408.79 C 830.00 453.68 860.82 498.54 891.55 543.46 C 908.06 568.01 923.80 593.06 940.42 617.54 C 972.38 664.13 1006.08 709.52 1037.36 756.58 C 1049.80 774.79 1061.81 793.30 1074.81 811.12 C 1076.37 812.85 1077.39 815.49 1079.87 816.10 C 1085.81 801.37 1090.83 786.28 1094.91 770.93 C 1099.69 755.06 1103.92 739.02 1108.06 722.97 C 1112.19 706.65 1113.54 689.28 1121.81 674.29 C 1126.72 676.80 1131.16 680.11 1135.56 683.42 C 1146.62 691.94 1157.23 701.04 1167.48 710.52 C 1172.93 716.10 1178.95 721.29 1183.14 727.95 C 1185.35 731.18 1185.70 735.21 1186.13 739.00 C 1186.72 751.86 1184.18 764.64 1180.91 777.03 C 1176.65 795.73 1169.20 813.48 1162.25 831.30 C 1158.12 841.05 1153.57 850.62 1149.30 860.32 C 1144.08 870.71 1138.84 881.09 1133.30 891.32 C 1128.12 900.42 1122.83 909.46 1117.48 918.45 C 1109.23 930.83 1101.46 943.55 1092.24 955.24 C 1082.48 968.96 1071.74 981.96 1060.30 994.30 C 1046.12 1009.79 1030.26 1023.60 1014.99 1037.97 C 999.95 1050.99 985.18 1064.38 969.09 1076.12 C 936.53 1100.79 900.63 1120.78 863.39 1137.46 C 837.90 1148.77 811.60 1158.57 784.28 1164.41 C 777.17 1165.68 770.06 1166.88 762.96 1168.15 C 750.35 1170.48 737.57 1171.55 724.88 1173.33 C 693.37 1176.32 661.67 1177.50 630.02 1176.56 C 616.66 1176.39 603.35 1174.97 590.02 1174.19 C 568.11 1171.94 546.32 1168.42 524.92 1163.20 C 517.32 1161.01 509.63 1159.19 502.09 1156.80 C 488.13 1152.98 474.54 1147.97 460.90 1143.18 C 450.32 1138.80 439.58 1134.77 429.26 1129.80 C 396.65 1114.93 365.63 1096.57 336.86 1075.20 C 323.23 1065.62 310.51 1054.84 297.53 1044.42 C 287.59 1035.73 277.32 1027.39 267.92 1018.09 C 256.46 1007.53 246.32 995.66 236.03 983.99 C 229.70 976.96 223.73 969.62 217.65 962.38 C 191.17 928.52 169.87 890.85 152.35 851.66 C 149.28 845.15 147.08 838.28 144.36 831.63 C 141.37 824.28 139.34 816.60 136.78 809.11 C 132.06 795.31 128.08 781.27 124.85 767.06 C 122.59 757.87 120.93 748.48 120.68 739.01 C 120.60 734.42 123.24 730.43 125.85 726.89 C 133.65 716.73 143.55 708.52 152.96 699.92 C 163.36 691.35 172.97 681.83 183.78 673.75 C 185.96 672.19 188.38 671.03 190.79 669.89 C 196.04 677.88 196.60 687.70 197.74 696.91 C 199.93 718.83 204.33 740.44 208.89 761.97 C 211.35 773.31 213.95 784.70 218.51 795.41 C 219.45 797.66 220.79 799.72 222.12 801.77 C 226.92 797.69 231.45 793.22 235.00 787.99 C 239.39 782.35 243.41 776.44 247.77 770.78 C 262.36 751.62 276.04 731.80 290.37 712.44 C 322.62 667.00 354.74 621.48 386.89 575.97 C 414.27 536.39 442.04 497.07 469.29 457.39 C 480.50 441.18 491.41 424.76 502.64 408.56 C 508.97 399.86 514.97 390.92 520.95 381.97 C 529.34 369.12 538.20 356.57 547.01 344.00 C 560.40 324.44 573.68 304.79 587.49 285.52 C 604.41 260.73 620.83 235.59 638.07 211.01 M 636.30 355.33 C 577.92 438.90 519.52 522.46 461.10 606.01 C 437.31 640.21 413.19 674.18 389.72 708.61 C 378.16 725.40 366.08 741.82 354.71 758.74 C 329.76 794.11 304.82 829.49 279.78 864.80 C 275.64 870.70 271.39 876.54 267.74 882.77 C 266.45 885.02 264.87 887.30 264.77 890.00 C 264.45 892.75 266.27 895.06 267.81 897.13 C 276.60 908.13 284.29 919.96 293.06 930.99 C 299.17 938.80 305.32 946.64 312.51 953.51 C 318.46 959.22 324.04 965.31 330.13 970.87 C 345.72 985.07 362.30 998.15 378.99 1011.04 C 398.96 1025.90 419.88 1039.55 441.95 1051.10 C 484.60 1073.88 531.24 1089.10 579.06 1096.21 C 610.11 1101.03 641.63 1101.93 672.99 1101.29 C 681.69 1101.32 690.39 1100.84 699.04 1099.96 C 713.85 1097.85 728.41 1094.30 742.99 1091.01 C 766.96 1085.78 790.80 1079.58 813.62 1070.50 C 826.82 1065.61 839.44 1059.31 852.04 1053.07 C 882.92 1036.93 912.93 1018.88 940.47 997.49 C 952.32 988.06 963.61 977.96 974.84 967.82 C 979.26 963.89 983.13 959.41 987.08 955.03 C 1002.18 937.77 1017.67 920.82 1031.53 902.53 C 1033.40 899.98 1035.18 897.16 1035.45 893.94 C 1034.68 890.38 1032.53 887.34 1030.72 884.24 C 1017.37 863.43 1002.40 843.71 988.87 823.02 C 982.33 814.20 976.45 804.93 970.11 795.98 C 891.39 681.34 812.50 566.82 733.76 452.19 C 711.29 419.05 689.13 385.69 666.14 352.91 C 661.81 346.95 657.14 341.25 652.87 335.25 C 645.81 340.48 641.36 348.31 636.30 355.33 Z" />
<path fill="#000000" opacity="1.00" d=" M 650.70 490.57 C 653.89 489.90 656.11 492.92 657.99 495.00 C 677.03 518.61 694.10 543.71 711.29 568.68 C 755.04 631.96 798.82 695.21 842.51 758.53 C 846.70 765.00 851.18 771.33 854.20 778.47 C 848.38 780.59 842.17 781.17 836.04 781.54 C 826.36 781.75 816.67 781.62 807.00 781.60 C 714.33 781.59 621.66 781.40 529.00 781.85 C 510.00 782.22 491.00 782.26 472.01 782.89 C 462.87 783.57 453.53 783.66 444.59 781.41 C 446.76 773.00 452.45 766.22 457.14 759.11 C 493.18 705.19 531.51 652.85 569.12 600.02 C 589.99 570.32 610.98 540.69 632.63 511.56 C 637.05 505.39 641.87 499.52 646.66 493.64 C 647.79 492.38 648.84 490.71 650.70 490.57 M 622.48 649.47 C 610.74 666.14 598.45 682.48 587.99 700.00 C 586.21 702.81 584.81 705.88 584.48 709.23 C 585.83 710.19 587.26 711.17 589.00 711.23 C 601.29 712.51 613.67 712.14 626.00 712.33 C 650.68 712.20 675.37 713.17 700.03 712.05 C 704.31 711.68 708.58 711.27 712.82 710.58 C 711.96 707.75 711.10 704.91 709.76 702.28 C 705.62 693.96 700.89 685.95 695.83 678.17 C 685.16 660.61 672.69 644.23 659.69 628.35 C 656.23 624.02 652.33 620.04 648.05 616.53 C 638.87 626.99 630.79 638.33 622.48 649.47 Z" />
</g>
<g id="#fefefeff">
<path fill="#fefefe" opacity="1.00" d=" M 622.48 649.47 C 630.79 638.33 638.87 626.99 648.05 616.53 C 652.33 620.04 656.23 624.02 659.69 628.35 C 672.69 644.23 685.16 660.61 695.83 678.17 C 700.89 685.95 705.62 693.96 709.76 702.28 C 711.10 704.91 711.96 707.75 712.82 710.58 C 708.58 711.27 704.31 711.68 700.03 712.05 C 675.37 713.17 650.68 712.20 626.00 712.33 C 613.67 712.14 601.29 712.51 589.00 711.23 C 587.26 711.17 585.83 710.19 584.48 709.23 C 584.81 705.88 586.21 702.81 587.99 700.00 C 598.45 682.48 610.74 666.14 622.48 649.47 Z" />
</g>
</svg>
